<svg width="208" height="99" xmlns="http://www.w3.org/2000/svg"><g fill="none" fill-rule="evenodd"><path fill="#F8E708" d="M116.424 26.17H99.115l14.99-8.638-3.134-5.417-14.99 8.638 8.655-14.963-5.43-3.128-8.654 14.962V.347h-6.268v17.278L75.63 2.662 70.2 5.79l8.655 14.963-14.991-8.638-3.134 5.417 14.99 8.639H58.41v6.256h17.311l-14.991 8.64 3.134 5.417 14.99-8.638-8.654 14.963 5.428 3.128 8.655-14.963v17.278h6.268V40.975l8.655 14.962 5.429-3.128-8.656-14.963 14.991 8.638 3.134-5.417-14.99-8.64h17.31z"/><path fill="#C6D9CC" d="M135.735 39.035V14.86h-27.294v16.025H89.967v57.486h73.636V39.035z"/><path fill="#FFF" d="M158.776 82.55h5.564v5.93h-5.564z"/><path fill="#770E89" d="M206.948 88.372v-27.42l-8.755-7.709-6.396 5.621-6.4-5.619-6.432 5.654-6.403-5.628-8.959 7.888v27.17l4.632.006v-25.16l4.33-3.812 4.122 3.624v25.356l4.644.004V62.91l4.068-3.575 4.123 3.62v25.401l4.645.005V62.872l4.023-3.537 4.15 3.654v25.379z"/><path d="M162.722 87.632a1.838 1.838 0 01-2.593 0 1.85 1.85 0 010-2.6 1.837 1.837 0 012.593 0 1.85 1.85 0 010 2.6m8.188.688l-1.994-1.99 2.105-2.102-.018-.018a5.258 5.258 0 001.521-3.705 5.286 5.286 0 00-5.29-5.28c-1.641 0-3.107.745-4.078 1.915l-1.732 1.73-2.115-2.11-.003.003a5.278 5.278 0 00-3.733-1.539 5.286 5.286 0 00-5.29 5.281c0 1.512.637 2.875 1.657 3.837l1.994 1.99-2.105 2.102.018.019a5.257 5.257 0 00-1.521 3.704 5.286 5.286 0 005.29 5.281c1.641 0 3.107-.746 4.078-1.916l1.732-1.729 2.115 2.11.003-.003a5.28 5.28 0 003.733 1.538 5.286 5.286 0 005.29-5.28 5.26 5.26 0 00-1.657-3.838M118.593 39.682h7.88v-8.644h-7.88zM135.617 58.252h7.88v-8.645h-7.88z" fill="#004DF5"/><path fill="#C6D9CC" d="M78.127 31.038h-33.69l-12.03 23.158v34.176h57.56l6.328-.205-1.673-34.238-4.655.03z"/><path d="M110.637 53.725c0-5.914-4.987-10.666-10.993-10.295-5.238.325-9.463 4.646-9.668 9.88a10.269 10.269 0 00.972 4.805c.652 1.38.666 2.99.011 4.368a10.252 10.252 0 00-.992 4.414c0 4.892 3.412 8.984 7.99 10.046V88.48h4.69V76.943c4.578-1.062 7.99-5.154 7.99-10.046 0-1.58-.356-3.075-.992-4.413a5.076 5.076 0 010-4.345c.636-1.338.992-2.834.992-4.414" fill="#008D2C"/><path d="M10.902 49.135a6.518 6.518 0 016.48 5.778h.001l2.583 13.9c.139.637.214 1.298.214 1.976 0 4.298-2.933 7.91-6.91 8.956v8.422H8.533v-8.422c-3.977-1.045-6.91-4.658-6.91-8.956 0-.591.058-1.169.164-1.73h-.074L4.42 54.913a6.52 6.52 0 016.482-5.778zm21.409 6.007a6.524 6.524 0 016.185 4.447h.002l.022.069.04.129 2.43 7.852a9.223 9.223 0 01.599 3.275c0 4.298-2.933 7.91-6.91 8.955v8.298h-4.737v-8.298c-3.977-1.045-6.91-4.657-6.91-8.955 0-.899.13-1.766.37-2.588h-.003l.031-.1.041-.132 2.577-8.262c.023-.078.047-.155.073-.232l.022-.071a6.527 6.527 0 016.168-4.387z" fill="#DE1414"/><path fill="#ED951B" d="M73.554 54.707H67.24V45.9h.108l-.005-.005 3.08-3.19 3.08 3.19-.005.005h.056zM53.753 54.707H47.44V45.9h.108l-.005-.005 3.08-3.19 3.08 3.19-.005.005h.056z"/></g></svg>