<svg viewBox="0 0 87 70" xmlns="http://www.w3.org/2000/svg">
    <g stroke="none" stroke-width="1" fill="none" fill-rule="evenodd">
        <g transform="translate(0.000000, 19.000000)">
            <path d="M33.4262487,13 L28.0741515,13 C26.956739,16.1939214 23.9881301,18.4876244 20.4999636,18.4876244 C17.0123065,18.4876244 14.0436976,16.1939214 12.9262123,13 L7.57418789,13 C6.45671721,16.1939214 3.48770803,18.4876244 0,18.4876244 L0,23 C4.24781193,23 8.00329582,20.8004514 10.2502001,17.4525125 C12.4966678,20.8004514 16.2526174,23 20.4999636,23 C24.7478192,23 28.5037688,20.8004514 30.7501637,17.4525125 C32.9966314,20.8004514 36.752581,23 41,23 L41,18.4876244 C37.5122701,18.4876244 34.5436612,16.1939214 33.4262487,13 Z" id="Path" fill="#B6CCBD"></path>
            <path d="M33.4262487,27 L28.0741515,27 C26.956739,30.1937015 23.9881301,32.4879175 20.4999636,32.4879175 C17.0123065,32.4879175 14.0436976,30.1937015 12.9262123,27 L7.57418789,27 C6.45671721,30.1937015 3.48770803,32.4879175 0,32.4879175 L0,37 C4.24781193,37 8.00329582,34.8003781 10.2502001,31.4527323 C12.4966678,34.8003781 16.2526174,37 20.4999636,37 C24.7478192,37 28.5037688,34.8003781 30.7501637,31.4527323 C32.9966314,34.8003781 36.752581,37 41,37 L41,32.4879175 C37.5122701,32.4879175 34.5436612,30.1937015 33.4262487,27 Z" id="Path" fill="#B6CCBD"></path>
            <path d="M33.4262487,41 L28.0741515,41 C26.956739,44.1939946 23.9881301,46.4876977 20.4999636,46.4876977 C17.0123065,46.4876977 14.0436976,44.1939946 12.9262123,41 L7.57418789,41 C6.45671721,44.1939946 3.48770803,46.4876977 0,46.4876977 L0,51 C4.24781193,51 8.00329582,48.8004514 10.2502001,45.4525858 C12.4966678,48.8004514 16.2526174,51 20.4999636,51 C24.7478192,51 28.5037688,48.8004514 30.7501637,45.4525858 C32.9966314,48.8004514 36.752581,51 41,51 L41,46.4876977 C37.5122701,46.4876977 34.5436612,44.1939946 33.4262487,41 Z" id="Path" fill="#B6CCBD"></path>
            <path d="M84.2480029,43.1493514 C82.7367441,41.6156357 82.7367441,39.0955071 84.2480029,37.5617914 C85.0032667,36.7946057 86.0012678,36.4107943 87,36.4107943 L87,29.2570971 C86.0012678,29.2570971 85.0032667,28.8737957 84.2480029,28.1066829 C82.7367441,26.5728943 82.7367441,24.0528386 84.2480029,22.5186129 C85.0032667,21.7519371 86.0012678,21.3686357 87,21.3686357 L87,14.5892057 C86.0012678,14.5892057 85.0032667,14.2058314 84.2480029,13.4387186 C82.7367441,11.90493 82.7367441,9.38487429 84.2480029,7.85064857 C85.0032667,7.08348471 86.0012678,6.70016871 87,6.70016871 L87,0 L80.4314713,0 C80.4314713,1.01863757 80.0549361,2.03676514 79.303328,2.80743343 C77.7993806,4.34826729 75.328871,4.34826729 73.8249236,2.80743343 C73.0733154,2.03676514 72.6975114,1.01863757 72.6975114,0 L65.6833551,0 C65.6838669,1.01863757 65.307551,2.03676514 64.5559429,2.80743343 C63.0517761,4.34826729 60.5811203,4.34826729 59.0774654,2.80743343 C58.3253454,2.03676514 57.9495414,1.01863757 57.9495414,0 L51.3030736,0 C51.3030736,1.01863757 50.9272695,2.03676514 50.1751496,2.80743343 C48.6714946,4.34826729 46.2008388,4.34826729 44.6971107,2.80743343 C43.9450639,2.03676514 43.5692598,1.01863757 43.5692598,0 L37,0 L37,6.70016871 C37.9986591,6.70016871 38.9968064,7.08348471 39.7523627,7.85064857 C41.2634752,9.38487429 41.2634752,11.90493 39.7523627,13.4387186 C38.9968064,14.2058314 37.9986591,14.5892057 37,14.5892057 L37,21.5555143 C37.9986591,21.5555143 38.9968064,21.9388157 39.7523627,22.7064386 C41.2634752,24.2402271 41.2634752,26.7602829 39.7523627,28.2940714 C38.9968064,29.0611843 37.9986591,29.4444857 37,29.4444857 L37,36.4107943 C37.9986591,36.4107943 38.9968064,36.7946057 39.7523627,37.5617914 C41.2634752,39.0955071 41.2634752,41.6156357 39.7523627,43.1493514 C38.9968064,43.9165371 37.9986591,44.2998386 37,44.2998386 L37,51 L43.5692598,51 C43.5692598,49.9818214 43.9450639,48.9637157 44.6971107,48.1930329 C46.2008388,46.65174 48.6714946,46.65174 50.1751496,48.1930329 C50.9272695,48.9637157 51.3030736,49.9818214 51.3030736,51 L58.1332028,51 C58.1332028,49.9818214 58.5090069,48.9637157 59.2611268,48.1930329 C60.7647817,46.65174 63.2354376,46.65174 64.7391657,48.1930329 C65.4912125,48.9637157 65.8670165,49.9818214 65.8670165,51 L72.6975114,51 C72.6975114,49.9818214 73.0733154,48.9637157 73.8249236,48.1930329 C75.328871,46.65174 77.7993806,46.65174 79.303328,48.1930329 C80.0549361,48.9637157 80.4314713,49.9818214 80.4314713,51 L87,51 L87,44.2998386 C86.0012678,44.2998386 85.0032667,43.9165371 84.2480029,43.1493514 Z" id="Path" fill="#144225"></path>
        </g>
    </g>
</svg>