<svg viewBox="0 0 91 70" fill="none" xmlns="http://www.w3.org/2000/svg">
<path fill-rule="evenodd" clip-rule="evenodd" d="M75.8361 0H35.0589L31.1278 9.53756H24.4962V25.6266L20.498 35.3265V69.8564H68.3381V50.9439H75.8408V69.8564H90.1663V35.0385L75.8361 0Z" fill="#FE8C68"/>
<path fill-rule="evenodd" clip-rule="evenodd" d="M20.7962 42.7225C20.7962 36.7352 16.1409 31.8817 10.3981 31.8817C4.6553 31.8817 0 36.7352 0 42.7225C0 48.7098 4.6553 53.5633 10.3981 53.5633C16.1409 53.5633 20.7962 48.7098 20.7962 42.7225Z" fill="#740631"/>
<path fill-rule="evenodd" clip-rule="evenodd" d="M43.7141 42.7224C43.7141 36.7351 39.0588 31.8816 33.316 31.8816C27.5733 31.8816 22.918 36.7351 22.918 42.7224C22.918 48.7096 27.5733 53.5631 33.316 53.5631C39.0588 53.5631 43.7141 48.7096 43.7141 42.7224Z" fill="#740631"/>
<path fill-rule="evenodd" clip-rule="evenodd" d="M21.8661 70L3.0332 50.3653L17.7403 35.0316L36.5732 54.6667L21.8661 70Z" fill="#740631"/>
<path fill-rule="evenodd" clip-rule="evenodd" d="M7.21875 54.6666L26.0516 35.032L40.7591 50.3652L21.9258 69.9999L7.21875 54.6666Z" fill="#740631"/>
</svg>