<svg viewBox="0 0 92 70" fill="none" xmlns="http://www.w3.org/2000/svg">
<path fill-rule="evenodd" clip-rule="evenodd" d="M25.4961 41.3748C37.6326 42.1344 48.7725 45.7287 58.7067 52.0929C68.3421 45.496 79.2967 41.9514 91.9999 41.3243V0.0863197C79.9099 0.966781 69.8924 4.49829 61.4853 10.8238L58.881 12.7843L56.2185 10.9046C46.8189 4.26834 36.757 0.680199 25.5843 0L25.4961 41.3748Z" fill="#052286"/>
<path fill-rule="evenodd" clip-rule="evenodd" d="M58.6006 70L56.6187 68.7389C48.2166 63.3913 37.0246 57.2469 24.957 57.188L24.9919 49.9225C37.9023 49.9848 49.4883 55.8147 58.4556 61.3445C67.6321 55.2542 78.0887 49.9225 91.8091 49.9225C91.8727 49.9225 91.9336 49.9225 91.9972 49.9225L91.9719 57.1887C91.9185 57.188 91.8645 57.188 91.8104 57.188C78.4061 57.188 68.6426 63.1128 60.5387 68.671L58.6006 70Z" fill="#052286"/>
<path fill-rule="evenodd" clip-rule="evenodd" d="M46.1714 41.5805H32.3949L44.3254 34.5931L41.8314 30.2109L29.9004 37.1983L36.7889 25.0953L32.468 22.5648L25.58 34.6673V20.6926H20.591V34.6678L13.7029 22.5648L9.38255 25.0953L16.2706 37.1983L4.34007 30.2109L1.84556 34.5931L13.7761 41.5805H0V46.6414H13.777L1.84556 53.6292L4.34007 58.0114L16.2706 51.0241L9.38255 63.1271L13.7029 65.6575L20.591 53.5545V67.5297H25.58V53.555L32.468 65.6575L36.7889 63.1271L29.9004 51.0241L41.8314 58.0114L44.3254 53.6292L32.3944 46.6414H46.1714V41.5805Z" fill="#CEB7FF"/>
</svg>
