<svg viewBox="0 0 282 200" fill="none" xmlns="http://www.w3.org/2000/svg">
<path fill-rule="evenodd" clip-rule="evenodd" d="M106.726 138.915H74.8819L102.459 122.533L96.6931 112.259L69.1153 128.641L85.0376 100.264L75.0504 94.3318L59.1281 122.707V89.9423H47.5963V122.707L31.6747 94.3318L21.6875 100.264L37.6097 128.641L10.032 112.259L4.26607 122.533L31.8431 138.915H0V150.781H31.8452L4.26607 167.165L10.032 177.439L37.6097 161.056L21.6875 189.433L31.6747 195.366L47.5963 166.99V199.756H59.1281V166.99L75.0504 195.366L85.0376 189.433L69.1153 161.056L96.6931 177.439L102.459 167.165L74.8798 150.781H106.726V138.915Z" fill="#C8B0FF"/>
<path fill-rule="evenodd" clip-rule="evenodd" d="M124.047 21.9626V71.9933L66.7031 87.8533V200H104.744V151.389H123.427V200H124.047H139.701H241.399V55.9306L124.047 21.9626Z" fill="#052286"/>
<path fill-rule="evenodd" clip-rule="evenodd" d="M281.602 126.577L269.317 139.097L229.769 98.7923C220.693 105.522 209.759 109.213 198.279 109.213C168.687 109.213 144.697 84.765 144.697 54.6066C144.697 24.4482 168.687 0 198.279 0C227.871 0 251.86 24.4482 251.86 54.6066C251.86 66.0946 248.369 77.048 241.985 86.2026L281.602 126.577ZM234.485 54.6065C234.485 74.9862 218.274 91.5072 198.277 91.5072C178.28 91.5072 162.069 74.9862 162.069 54.6065C162.069 34.2268 178.28 17.7058 198.277 17.7058C218.274 17.7058 234.485 34.2268 234.485 54.6065Z" fill="#00ADBB"/>
</svg>
