<svg viewBox="0 0 87 70" xmlns="http://www.w3.org/2000/svg">
    <g stroke="none" stroke-width="1" fill="none" fill-rule="evenodd">
        <g transform="translate(0.000000, 20.000000)">
            <path d="M87.9081913,51 L84,51 C81.3463127,36.2874423 68.4657793,25.0922359 53.0230906,25.0922359 C52.6806763,25.0922359 52.3398307,25.0996391 52,25.1106513 L52,21.2481261 C52.3398307,21.2383168 52.6808609,21.2322092 53.0230906,21.2322092 C57.693894,21.2322092 62.1552444,22.1469667 66.2400406,23.8032468 C72.2121289,18.9895033 79.7739383,16.0818979 88,16 L88,19.8592864 C81.3568314,19.9334109 75.1995571,22.0741377 70.146571,25.6754227 C70.1460174,25.6750525 70.1454638,25.6747749 70.1449102,25.6744973 L70.146571,25.6754227 C70.146571,25.6754227 70.146571,25.6754227 70.146571,25.6754227 C72.4464949,26.9571937 74.5891906,28.4881747 76.5385804,30.232738 C79.9392863,28.3189191 83.84351,27.2025171 88,27.142181 L88,31.0065571 C84.9144887,31.0601378 81.9940486,31.8003649 79.3868654,33.0876882 C81.0426518,34.9465383 82.5065166,36.9803815 83.7454269,39.158587 C85.074485,38.6539667 86.5065166,38.3622807 88,38.3218408 L88,42.1880676 C87.1228807,42.2220298 86.2759337,42.3737953 85.4766903,42.6351282 C86.6143803,45.2739051 87.4401052,48.0779583 87.9081913,51 Z M53.0250283,32.210502 C52.68123,32.210502 52.340292,32.2225322 52,32.2366908 L52,36.1310498 C52.3395539,36.1140224 52.68123,36.104861 53.0250283,36.104861 C62.3186547,36.104861 70.1739752,42.410071 72.6211621,51 L76.6122119,51 C74.069341,40.2394537 64.4623653,32.210502 53.0250283,32.210502 Z M52,43.6750922 L52,47.5090226 C52.337893,47.471729 52.6804918,47.4510926 53.0277964,47.4510926 C55.9984314,47.4510926 58.6440913,48.8437265 60.3342945,51 L64.8570967,51 C62.7459574,46.6464577 58.237457,43.6315984 53.0277964,43.6315984 C52.6814145,43.6315984 52.3395539,43.6489959 52,43.6750922 Z" id="Shape" fill="#CEB7FF"></path>
            <polygon id="Path" fill="#052286" points="16.7408119 0 16.7408119 14.050623 0 18.5047864 0 50 11.1054288 50 11.1054288 36.3480476 16.5597151 36.3480476 16.5597151 50 16.7408119 50 21.3108111 50 51 50 51 9.53956146"></polygon>
            <path d="M43,22.9653717 C43,18.5661085 46.5818089,15 50.9999074,15 C55.4181911,15 59,18.5661085 59,22.9653717 L59,34.8976289 L58.9912935,34.8976289 C58.9001528,38.5858272 56.2962534,41.651574 52.815681,42.4561286 L52.815681,50 L49.1840411,50 L49.1840411,42.4561286 C45.7037466,41.651574 43.0998472,38.5858272 43.0087065,34.8976289 C43.0087065,34.8976289 43,22.9925653 43,22.9653717 Z" id="Path" fill="#00ADBB"></path>
        </g>
    </g>
</svg>