<?xml version="1.0" encoding="UTF-8" standalone="no"?>
<svg
   xmlns:dc="http://purl.org/dc/elements/1.1/"
   xmlns:cc="http://creativecommons.org/ns#"
   xmlns:rdf="http://www.w3.org/1999/02/22-rdf-syntax-ns#"
   xmlns:svg="http://www.w3.org/2000/svg"
   xmlns="http://www.w3.org/2000/svg"
   viewBox="0 0 543.82666 172.8"
   height="172.8"
   width="543.82666"
   xml:space="preserve"
   id="svg2"
   version="1.1"><metadata
     id="metadata8"><rdf:RDF><cc:Work
         rdf:about=""><dc:format>image/svg+xml</dc:format><dc:type
           rdf:resource="http://purl.org/dc/dcmitype/StillImage" /></cc:Work></rdf:RDF></metadata><defs
     id="defs6"><clipPath
       id="clipPath20"
       clipPathUnits="userSpaceOnUse"><path
         id="path18"
         d="M 0,1295.98 V 0 h 4078.71 v 1295.98 z" /></clipPath></defs><g
     transform="matrix(1.3333333,0,0,-1.3333333,0,172.8)"
     id="g10"><g
       transform="scale(0.1)"
       id="g12"><g
         id="g14"><g
           clip-path="url(#clipPath20)"
           id="g16"><path
             id="path22"
             style="fill:#262b63;fill-opacity:1;fill-rule:nonzero;stroke:none"
             d="m 4032.8,161.031 c 6.71,0 12.71,0.481 12.71,8.508 0,6.481 -5.88,7.68 -11.41,7.68 h -10.78 v -16.188 z m -9.48,-29.39 h -7.93 v 52.3 h 19.92 c 12.35,0 18.46,-4.562 18.46,-14.871 0,-9.359 -5.88,-13.429 -13.55,-14.398 l 14.88,-23.031 h -8.89 l -13.79,22.679 h -9.1 z m 9.59,-11.629 c 20.51,0 36.7,16.078 36.7,37.898 0,21.469 -16.19,37.66 -36.7,37.66 -20.76,0 -36.95,-16.191 -36.95,-37.66 0,-21.82 16.19,-37.898 36.95,-37.898 z m -46.05,37.898 c 0,26.031 21.11,45.219 46.05,45.219 24.71,0 45.8,-19.188 45.8,-45.219 0,-26.269 -21.09,-45.449 -45.8,-45.449 -24.94,0 -46.05,19.18 -46.05,45.449" /><path
             id="path24"
             style="fill:#223668;fill-opacity:1;fill-rule:evenodd;stroke:none"
             d="m 1912.91,669.379 h -42.97 v 335.881 c 23.88,-0.22 94.57,-2.54 137.71,-21.252 22.67,-11.328 41.45,-27.207 55.49,-46.153 18.05,-32.48 27.46,-67.05 28.39,-101.484 -0.93,-34.453 -10.34,-69.023 -28.39,-101.504 -14.04,-18.945 -32.82,-34.824 -55.49,-46.152 -26.89,-11.66 -64.44,-16.953 -94.74,-19.336 z M 2501,1121.53 c -0.19,0 -0.39,0 -0.59,0 -21.93,0 -39.72,-17.85 -39.72,-39.87 0,-22.03 17.79,-39.88 39.72,-39.88 0.2,0 0.4,0 0.59,0 h 0.17 c 15.44,-0.86 29.36,-4.88 42.11,-12.19 6.93,-3.98 10.86,-10.8 10.86,-18.79 0,-16.519 0,-662.495 0,-662.495 -0.07,0.058 -0.07,0.078 -0.07,0.078 -0.04,-0.918 -0.08,-1.797 -0.12,-2.676 -0.2,-3.848 -0.52,-7.539 -1.01,-11.152 0.03,-2.422 -0.09,-4.844 -0.34,-7.227 -1.81,-17.812 -9.29,-32.398 -22.68,-44.258 -28.28,-24.98 -71.43,-22.32 -96.41,5.918 -78.19,88.438 -191.9,217.032 -296.54,335.371 32.41,17.5 61.37,40.801 85.45,68.75 95.38,96.114 94.81,251.368 -1.29,346.761 -5.9,5.86 -11.15,10.56 -17.59,15.84 -0.87,0.7 -1.71,1.38 -2.55,2.07 -40.97,32.56 -99.78,46.19 -133.37,48.3 -1.85,0.12 -3.74,0.15 -5.67,0.13 -31.34,0.57 -839.96,15.22 -842.38,15.26 -0.67,0.04 -1.35,0.06 -2.04,0.06 -21.94,0 -39.71,-17.85 -39.71,-39.87 0,-22.03 17.77,-39.88 39.71,-39.88 0.21,0 0.39,0 0.6,0 h 2.57 c 22.89,-1.27 42.45,-9.49 59.75,-25.08 7.82,-7.32 14.48,-16.19 19.73,-26.423 1.28,-3.3 2.3,-6.699 3.05,-10.175 -1.33,-90.664 -6.57,-447.266 -6.57,-447.266 -144.41,132.754 -480.601,441.816 -413.367,380.019 -81.551,74.981 -200.867,183.965 -215.691,196.815 0,0 -2.657,2.42 -21.985,20.06 -19.336,17.64 -49.304,16.27 -66.941,-3.07 -7.949,-8.71 -11.985,-18.63 -12.363,-30.43 l -0.215,-6.95 -12.657,-396.581 -11.386,-356.758 c -0.059,-0.449 -0.117,-0.918 -0.176,-1.386 0.066,-8.496 -1.484,-16.68 -4.453,-24.336 -5.254,-10.235 -11.914,-19.078 -19.746,-26.43 -16.543,-14.898 -35.188,-23.078 -56.817,-24.879 -21.64,1.801 -40.273,9.981 -56.836,24.879 -7.832,7.352 -14.484,16.195 -19.726,26.43 -2.559,6.582 -4.063,13.554 -4.395,20.742 0,0 0,664.59 0,805.219 0,27.55 22.246,49.94 49.805,50.09 365.801,2.11 3268.669,18.95 3523.549,20.41 19.29,13.93 23.62,40.86 9.72,60.14 -2.86,3.95 -5.78,6.88 -9.72,9.71 -17.78,0.1 -3901.3811,18.73 -3901.3811,18.73 -2.375,0.49 -4.8242,0.72 -7.3242,0.72 -21.9336,0 -39.70704,-19 -39.70704,-42.44 0,-20.37 13.40624,-37.38 31.30864,-41.5 14.3437,-5.65 26.25,-11.16 39.9218,-18.5 11.0821,-6.15 21.4844,-13.05 32.4419,-21.43 0.156,-0.11 0.312,-0.23 0.476,-0.35 10.871,-10.62 22.297,-28.26 23.82,-56.15 l 0.528,0.33 V 348.246 c -0.039,-0.859 -0.078,-1.719 -0.117,-2.539 -0.196,-3.848 -0.52,-7.539 -0.997,-11.152 0.079,-8.496 -1.484,-16.68 -4.453,-24.336 -5.254,-10.235 -11.914,-19.078 -19.746,-26.43 C 90.7461,268.23 71.1758,259.98 48.2852,258.711 h -3.125 c -0.1954,0 -0.3907,0 -0.6055,0 -21.9258,0 -39.70704,-17.852 -39.70704,-39.879 0,-22.012 17.78124,-39.863 39.70704,-39.863 0.2148,0 0.4101,0 0.6055,0 H 833.539 c 0.195,0 0.391,0 0.594,0 21.926,0 39.707,17.851 39.707,39.863 0,22.027 -17.781,39.879 -39.707,39.879 -0.203,0 -0.399,0 -0.594,0 h -4.289 c -22.879,1.269 -42.461,9.519 -59.754,25.078 -7.832,7.352 -14.492,16.195 -19.738,26.43 -2.137,5.508 -3.543,11.289 -4.129,17.285 -2.707,84.531 -13.691,428.789 -13.691,428.789 C 971.332,536.234 1223.03,304.848 1280.37,252.129 l 79.6,-73.18 c 30.47,-28.008 77.87,-26.019 105.88,4.449 13.25,14.422 19.77,31.133 19.77,50.704 0,73.597 0,589.554 0,759.125 0,26.813 21.75,48.553 48.56,48.553 14.6,0 33,0 50.1,0 25.53,0 46.22,-20.68 46.22,-46.21 0,-127.558 0,-659.55 0,-659.55 -0.05,-0.489 -0.09,-0.977 -0.15,-1.465 0.06,-8.496 -1.13,-16.68 -3.41,-24.336 -4.01,-10.235 -9.11,-19.078 -15.12,-26.43 -13.24,-15.559 -28.24,-23.809 -45.76,-25.078 h -0.42 c -0.2,0 -0.39,0 -0.6,0 -21.93,0 -39.7,-17.852 -39.7,-39.879 0,-22.012 17.77,-39.863 39.7,-39.863 0.21,0 0.4,0 0.6,0 h 396.11 v 0 c 0.3,0 0.63,0 0.93,0 21.93,0 39.73,17.851 39.73,39.863 0,22.027 -17.8,39.879 -39.73,39.879 -0.53,0 -1.06,0 -1.6,-0.02 v 0.02 h -6.85 c -22.9,1.269 -42.47,9.519 -59.75,25.078 -7.84,7.352 -14.5,16.195 -19.75,26.43 -2.97,7.656 -4.53,15.84 -4.45,24.336 -0.12,0.898 -0.24,1.797 -0.34,2.695 v 187.988 h 82.5 c 96.48,-109.101 184.68,-208.847 240.99,-272.519 l 6.49,-7.328 c 38.79,-43.879 88.82,-66.422 147.41,-66.422 41.32,0 77.36,0 77.36,0 h 871.53 c 0.21,0 0.39,0 0.58,0 0.21,0 0.41,0 0.61,0 h 5.73 v 0.511 c 18.92,3.02 33.38,19.508 33.38,39.352 0,22.027 -17.78,39.879 -39.72,39.879 -0.68,0 -1.37,-0.02 -2.05,-0.051 -1.24,0.051 -2.46,0.129 -4.39,0.289 -2.53,0.211 -4.64,0.992 -6.67,2.539 -5.71,4.262 -6.87,12.344 -2.6,18.043 11.23,15 145.83,194.946 145.83,194.946 l 229.5,-365.258 c 0,0 -3622.1192,-20.5081 -3639.2286,-20.5979 C -2.00781,73.9492 -5.67969,46.4883 8.98828,27.2891 11.5664,23.8906 14.1523,21.332 17.5625,18.7891 35.0625,18.7109 4025.88,0 4025.88,0 v 0.199219 c 21.04,1.050781 37.78,19.472681 37.78,41.992181 0,20.1992 -13.44,37.0703 -31.37,41.1094 -14.32,5.6289 -26.2,11.1601 -39.87,18.4802 -11.08,6.149 -21.46,13.051 -32.43,21.43 -0.14,0.109 -0.31,0.23 -0.47,0.371 -2.55,2.457 -5.12,5.328 -7.59,8.648 l -0.33,-0.429 -372.35,546.347 237.53,317.559 h 0.24 c 1.04,1.563 2.09,3.106 3.2,4.613 l 0.87,1.17 c 4.29,5.62 9.1,10.7 14.4,15.21 19.06,15.59 40.64,23.81 65.9,25.08 h 3.24 c 0.19,0 0.39,0 0.61,0 21.91,0 39.7,17.85 39.7,39.88 0,22.02 -17.79,39.87 -39.7,39.87 -0.22,0 -0.42,0 -0.61,0 h -304.32 c -0.19,0 -0.39,0 -0.59,0 -21.93,0 -39.72,-17.85 -39.72,-39.87 0,-22.03 17.79,-39.88 39.72,-39.88 0.2,0 0.4,0 0.59,0 h 2.56 c 2.32,-0.12 4.6,-0.33 6.85,-0.6 2.76,-0.34 5.06,-1.25 7.29,-2.91 6.76,-5.06 8.16,-14.63 3.1,-21.37 -49.64,-66.486 -142.07,-190.255 -142.07,-190.255 l -131.88,193.535 -3.44,5.02 c -1.2,1.78 -1.78,3.57 -1.85,5.7 -0.15,5.86 4.47,10.73 10.32,10.9 21.42,0.59 38.62,18.2 38.62,39.86 0,22.02 -17.8,39.87 -39.73,39.87 -0.2,0 -0.4,0 -0.59,0 h -343.56 c -0.19,0 -0.38,0 -0.58,0 -21.93,0 -39.71,-17.85 -39.71,-39.87 0,-22.03 17.78,-39.88 39.71,-39.88 0.2,0 0.39,0 0.58,0 h 3.81 c 27.2,-1.27 50.43,-9.49 70.98,-25.08 5,-3.96 9.59,-8.36 13.77,-13.16 l 235.6,-374.962 -243.44,-325.976 -5.09,-6.832 c -18.88,-25.258 -45.8,-38.75 -77.34,-38.75 -32.82,0 -101.92,0 -101.92,0 v 0.031 c -0.37,0.039 -0.74,0.097 -1.12,0.14 -24.62,0.508 -45.44,8.75 -63.73,25.239 -7.82,7.34 -14.48,16.187 -19.73,26.422 -2.97,7.656 -4.53,15.859 -4.46,24.355 -0.13,0.996 -0.25,2.012 -0.37,3.027 v 673.316 c 0,8.07 3.9,14.93 10.79,19.07 13.18,7.93 27.65,12.26 43.75,13.16 h 4.35 v 0.2 c 0.25,0.04 0.49,0.07 0.72,0.09 l 0.02,0.14 c 19.14,2.85 33.84,19.43 33.84,39.45 0,20.26 -15.07,37.02 -34.58,39.55 v 0.32 h -4.54 c -0.2,0 -0.4,0 -0.6,0 -0.18,0 -0.39,0 -0.59,0 H 2501" /></g></g></g></g></svg>