<svg viewBox="0 0 83 70" fill="none" xmlns="http://www.w3.org/2000/svg">
<path d="M14.6499 21.3889L0 44.4135V46.0991H4.49446V70.0002H15.8466V57.426H21.4999V70.0002H45.8366V46.0991H49.4047V44.4135L34.4118 21.3889H14.6499Z" fill="#00ADBB"/>
<path fill-rule="evenodd" clip-rule="evenodd" d="M83.0001 63.1656L76.6503 69.4134L56.2089 49.3003C51.5179 52.6588 45.8663 54.5006 39.9324 54.5006C24.6368 54.5006 12.2373 42.3002 12.2373 27.2503C12.2373 12.2004 24.6368 0 39.9324 0C55.228 0 67.6275 12.2004 67.6275 27.2503C67.6275 32.9832 65.8231 38.4492 62.5233 43.0176L83.0001 63.1656ZM58.6472 27.2502C58.6472 37.4203 50.2681 45.6648 39.9321 45.6648C29.596 45.6648 21.217 37.4203 21.217 27.2502C21.217 17.0802 29.596 8.83569 39.9321 8.83569C50.2681 8.83569 58.6472 17.0802 58.6472 27.2502Z" fill="#144225"/>
</svg>
