<svg viewBox="0 0 245 206" fill="none" xmlns="http://www.w3.org/2000/svg">
  <path fill-rule="evenodd" clip-rule="evenodd" d="M244.926 58.7681C244.926 26.5847 218.849 0.495117 186.682 0.495117C168.621 0.495117 152.48 8.72207 141.798 21.6328L122.724 40.716L99.4484 17.4299L99.4053 17.4715C88.8734 6.98051 74.3534 0.495117 58.3177 0.495117C26.1522 0.495117 0.0744019 26.5847 0.0744019 58.7681C0.0744019 75.4532 7.09409 90.4892 18.3268 101.113L122.558 205.397L122.724 205.23L122.891 205.397L228.38 99.852L228.177 99.6486C238.531 89.1283 244.926 74.698 244.926 58.7681Z" fill="#C3D600"/>
  <path fill-rule="evenodd" clip-rule="evenodd" d="M77.5831 126.553V87.9213H33.6526V113.531H3.9198V205.397H122.435V126.553H77.5831ZM20.5535 140.941H33.0288V127.426H20.5535V140.941ZM46.5437 170.05H34.0684V156.536H46.5437V170.05Z" fill="#FF5D3E"/>
  <path fill-rule="evenodd" clip-rule="evenodd" d="M198.946 121.067H198.942L192.473 156.316C192.126 157.932 191.938 159.607 191.938 161.328C191.938 172.227 199.284 181.388 209.245 184.039V205.397H221.111V184.039C231.071 181.388 238.417 172.227 238.417 161.328C238.417 159.828 238.272 158.363 238.006 156.941H238.192L231.413 121.067H231.409C230.496 112.822 223.579 106.412 215.178 106.412C206.776 106.412 199.859 112.822 198.946 121.067ZM139.211 153.498C138.245 156.074 137.712 158.863 137.712 161.778C137.712 172.644 145.058 181.777 155.018 184.419V205.397H166.884V184.419C176.845 181.777 184.191 172.644 184.191 161.778C184.191 159.507 183.864 157.314 183.265 155.237H183.272L183.193 154.981C183.16 154.87 183.125 154.76 183.091 154.65L176.636 133.761C176.579 133.565 176.519 133.37 176.455 133.176L176.399 132.995H176.394C174.183 126.543 168.107 121.906 160.951 121.906C153.74 121.906 147.624 126.616 145.458 133.146H145.453L145.4 133.319C145.365 133.428 145.332 133.538 145.299 133.649L139.211 153.498Z" fill="#144225"/>
</svg>
