<svg viewBox="0 0 87 70" fill="none" xmlns="http://www.w3.org/2000/svg">
<path fill-rule="evenodd" clip-rule="evenodd" d="M76.5464 22.2298H61.4852L74.5284 14.7936L71.8013 10.1298L58.7578 17.5659L66.2886 4.68542L61.5649 1.99246L54.0342 14.8723V0H48.58V14.8726L41.0495 1.99246L36.3259 4.68542L43.8566 17.5659L30.8132 10.1298L28.0861 14.7936L41.1292 22.2298H26.0684V27.6157H41.1302L28.0861 35.0525L30.8132 39.7164L43.8566 32.2799L36.3259 45.1607L41.0495 47.8537L48.58 34.9732V49.8461H54.0342V34.9735L61.5649 47.8537L66.2886 45.1607L58.7578 32.2799L71.8013 39.7164L74.5284 35.0525L61.4843 27.6157H76.5464V22.2298Z" fill="#F6E3D5"/>
<path fill-rule="evenodd" clip-rule="evenodd" d="M18.1647 15.6924V30.9535L0 35.7914V70H12.05V55.1719H17.9682V70H18.1647H23.1234H55.3378V26.0538L18.1647 15.6924Z" fill="#144225"/>
<path fill-rule="evenodd" clip-rule="evenodd" d="M57.2976 32.6748C52.5276 32.6748 48.6605 36.4778 48.6605 41.1693L48.6699 53.8942C48.7683 57.8274 51.5796 61.0968 55.3372 61.9548V69.9998H59.258V61.9548C63.0158 61.0968 65.8271 57.8274 65.9255 53.8942H65.9349V41.1693C65.9349 36.4778 62.0678 32.6748 57.2976 32.6748ZM86.6938 48.2965C86.6938 43.6051 82.8267 39.8018 78.0565 39.8018C73.2862 39.8018 69.4191 43.6051 69.4191 48.2965L69.4286 53.894C69.527 57.8272 72.3382 61.0966 76.0961 61.9548V69.9998H80.0169V61.9548C83.7745 61.0966 86.586 57.8272 86.6844 53.894L86.6938 48.2965Z" fill="#C3D600"/>
</svg>
